<?xml version="1.0" standalone="yes"?>
<svg xmlns="http://www.w3.org/2000/svg" width="233" height="267">
<path style="fill:#000000; stroke:none;" d="M0 0L0 249C4.44199 239.126 5.27003 230.574 15 223.638C23.939 217.266 35.6162 218.006 46 216.714C59.7861 214.998 72.8774 210.744 83.9992 202.251C103.407 187.43 107.936 162.576 111.562 140C112.994 131.086 111.84 119.881 116.995 112.043C120.853 106.177 126.657 106.136 132.961 105.949C144.669 105.601 156.266 105 168 105C173.122 105 179.724 104.083 183.566 108.279C186.941 111.963 186.015 117.501 185.424 122C184.442 129.481 184.341 137.066 183.306 144.576C180.872 162.238 177.237 179.919 169.191 196C149.776 234.806 111.709 256.909 70 263.41C53.3397 266.006 35.8362 266.027 19 266C11.6851 265.988 3.74809 265.888 1 258C-0.212943 260.89 0.00172643 263.874 0 267L233 267L233 20C228.122 30.1303 227.474 38.8531 217.999 46.6705C207.831 55.0605 194.443 55 182 55C165.741 55 149.325 54.3541 133.09 55.2461C125.112 55.6844 116.453 55.7025 109 58.8796C90.1791 66.9032 87.9888 86.0933 85.8449 104C82.5303 131.685 81.2773 163.911 59 183.826C52.4595 189.673 44.5873 194.286 36 196.331C32.1286 197.253 27.3683 197.802 24.9475 193.863C21.9638 189.007 24.837 180.24 25.5756 175C27.7803 159.358 29.3705 143.645 31.5756 128C37.5269 85.7761 38.3352 36.7455 81 13.3117C88.5744 9.15149 96.5766 6.28165 105 4.42438C122.779 0.504242 141.894 2 160 2C177.708 2 195.27 3 213 3C220.716 3 229.016 2.43372 232 11C233.44 7.56754 233 3.7002 233 0L0 0z"/>
<path style="fill:#05d0f1; stroke:none;" d="M111 4C113.332 4.98453 115.457 4.98126 118 5L118 8L108 7C112.498 15.9055 115.96 11.334 123.961 12.1335C130.779 12.8148 136.968 14 144 14L144 16L134 17C138.079 21.912 141.907 21.9993 148 22C147.279 19.8344 146.918 18.2776 147 16C149.787 16.6175 152.169 16.3007 155 16C151.829 14.1003 148.646 14.0306 145 14L145 12C157.493 12 169.411 9.99432 182 10C188.827 10.0031 194.516 12.7442 201 10C194.748 5.10144 180.784 8 173 8C167 8 161.849 6.78555 156 6.12885C148.087 5.24048 139.941 5.79944 132.039 4.87115C128.924 4.50522 126.163 2.89685 122.985 2.80322C119.003 2.68588 115.036 3.96393 111 4z"/>
<path style="fill:#1ca9c6; stroke:none;" d="M122 2C125.697 3.55151 130.017 3 134 3C130.303 1.44849 125.983 2 122 2z"/>
<path style="fill:#24b6da; stroke:none;" d="M134 2C139.715 4.39795 147.831 3 154 3C148.285 0.60202 140.169 2 134 2z"/>
<path style="fill:#33cccc; stroke:none;" d="M154 2C155.506 2.68304 156.315 2.8259 158 3C156.494 2.31696 155.685 2.1741 154 2z"/>
<path style="fill:#007fff; stroke:none;" d="M158 2L159 3L158 2z"/>
<path style="fill:#3fbfbf; stroke:none;" d="M159 2C160.248 2.68481 160.548 2.74878 162 3C160.752 2.31519 160.452 2.25122 159 2z"/>
<path style="fill:#0ad2e2; stroke:none;" d="M128 3L128 5C136.946 5 146.116 5.13144 155 6.12885C158.418 6.5126 161.521 7.85486 165 7.98148C176.886 8.41406 189.453 6.40982 201 9.38501C206.633 10.8363 214.368 9.49075 219 13C221.67 12.466 221.443 13.7849 222 11C221.586 14.2965 219.078 13.9497 216 14C217.506 14.683 218.315 14.8259 220 15L216 16C216 21.9484 217.849 30.5832 212 34L214 38L216 38C216.545 36.3649 216.365 36.5451 218 36C216.67 37.7526 215.753 38.6697 214 40L214 42C221.138 44.5767 222.87 42.4484 225.896 36.0394C227.792 32.0218 229.967 28.4902 230.672 24C231.419 19.2402 230.499 15.3696 233 11C224.405 2.1763 213.244 5.71384 202 4.94598C198.572 4.71191 195.428 3.28809 192 3.05402C170.8 1.60629 149.247 3 128 3z"/>
<path style="fill:#007fff; stroke:none;" d="M163 2C164.506 2.68304 165.315 2.8259 167 3C165.494 2.31696 164.685 2.1741 163 2z"/>
<path style="fill:#3fbfbf; stroke:none;" d="M168 2C169.248 2.68481 169.548 2.74878 171 3C169.752 2.31519 169.452 2.25122 168 2z"/>
<path style="fill:#007fff; stroke:none;" d="M171 2L172 3L171 2z"/>
<path style="fill:#55aaaa; stroke:none;" d="M173 2L174 3L173 2z"/>
<path style="fill:#007fff; stroke:none;" d="M174 2L175 3L174 2z"/>
<path style="fill:#3fbfbf; stroke:none;" d="M175 2C176.248 2.68478 176.548 2.74881 178 3C176.752 2.31519 176.452 2.25122 175 2z"/>
<path style="fill:#007fff; stroke:none;" d="M178 2L179 3L178 2z"/>
<path style="fill:#00ffff; stroke:none;" d="M191 2C192.506 2.68304 193.315 2.8259 195 3C193.494 2.31696 192.685 2.1741 191 2z"/>
<path style="fill:#44c6d5; stroke:none;" d="M196 3C199.432 4.44031 203.3 4 207 4C203.616 2.57678 199.628 2.6012 196 3z"/>
<path style="fill:#00ffff; stroke:none;" d="M109 3L110 4L109 3z"/>
<path style="fill:#2fbad1; stroke:none;" d="M104 4C108.56 5.89563 114.123 4.04037 119 4C114.269 2.01566 108.976 3.78629 104 4z"/>
<path style="fill:#41b0bd; stroke:none;" d="M207 3C212.222 5.19141 219.368 4 225 4C219.778 1.80859 212.632 3 207 3z"/>
<path style="fill:#13bfcd; stroke:none;" d="M197 4C200.959 5.6611 205.74 5 210 5C217.039 5 223.182 5.1962 230 7C227.585 3.58148 223.93 4.00656 220 4L197 4z"/>
<path style="fill:#37b6d2; stroke:none;" d="M100 5C101.506 5.68304 102.315 5.8259 104 6C102.494 5.31696 101.685 5.1741 100 5z"/>
<path style="fill:#09c5f5; stroke:none;" d="M112 48L123 48C121.047 49.7244 119.537 50.3447 117 51C120.556 52.4505 124.246 51.2962 128 51L128 54C137.046 53.8133 144.416 51.1455 153 49C147.953 46.8824 142.232 49.0071 137.015 47.4907C133.323 46.4177 130.681 43.5168 127.565 41.4552C124.96 39.7321 121.865 38.9803 119.236 37.2855C112.823 33.1508 113.509 23.1039 106 22L106 18L102 18C105.083 16.3532 107.519 16.0381 111 16L111 14L102 14L102 12C105.45 11.8961 107.583 11.5415 110 9L108 8C111.311 6.95413 114.525 7.90872 118 8L118 5C113.702 5 109.264 4.6904 105 5.30014C102.098 5.71509 99.1332 6.47754 96.439 7.63889C93.6357 8.84732 87.2649 11.7067 86.7917 15.1698C86.3356 18.5072 91.059 23.7986 93.2106 25.9853C99.2797 32.1531 110.799 39.0421 112 48z"/>
<path style="fill:#34b3e7; stroke:none;" d="M96 6C97.5061 6.68304 98.3148 6.8259 100 7C98.4939 6.31696 97.6852 6.1741 96 6z"/>
<path style="fill:#7f7f7f; stroke:none;" d="M230 6L231 7L230 6z"/>
<path style="fill:#53b0d0; stroke:none;" d="M93 7C94.2484 7.68481 94.5484 7.74878 96 8C94.7515 7.31512 94.4517 7.25122 93 7z"/>
<path style="fill:#24c4c4; stroke:none;" d="M230 7C230.684 8.57999 230.805 8.77722 232 10C231.316 8.42001 231.195 8.22278 230 7z"/>
<path style="fill:#0cbff7; stroke:none;" d="M84 11C84.5977 12.1955 84.466 11.9774 86 13C84.6859 13.7679 84.7679 13.6859 84 15C79.5464 14.7976 76.2185 17.7511 72 19C72.0492 23.1605 72.17 25.8881 76 28L76 30C74.2032 30 74.4785 30.0143 73 31C75.0786 33.602 76.7851 35.0921 80 36C80.3087 40.5954 82.9055 43.6957 84 48C85.0213 48.4021 86.0056 48.3532 86.7222 49.3333C87.9282 50.9829 92.361 63.4924 94 56C102.734 63.7429 106.648 56.229 116 55.1296C122.382 54.3794 128.697 56.3123 135 55C132.668 54.0155 130.543 54.0187 128 54L128 51L117 52C119.441 50.8644 121.4 50.1465 123 48L112 48C111.299 37.5856 97.8954 31.4245 91.8202 23.7415C86.2871 16.7441 86.7687 11.524 96 9C91.9096 7.46753 88.1468 10.4091 84 11z"/>
<path style="fill:#2eb9eb; stroke:none;" d="M86 10C87.8092 10.5742 88.0688 10.4653 90 10C88.3407 9.59354 87.7582 9.69138 86 10z"/>
<path style="fill:#08c8f5; stroke:none;" d="M108 10C105.943 11.5819 104.612 11.8256 102 12L102 14L111 14L111 16C107.831 16.008 105.041 16.1004 102 17C103.506 17.683 104.315 17.8259 106 18L106 22C112.656 23.7404 111.098 29.6978 115.019 34.2353C118.042 37.7327 122.042 38.6895 125.869 40.9198C132.683 44.8914 135.701 47.9936 144 48C142.402 45.3049 140.776 43.0475 140 40C132.8 39.5071 125.782 32.9421 124 26L128 26L128 17C133.382 16.5752 138.579 16 144 16L144 14C136.784 14 129.97 12.1645 122.985 12.0231C117.657 11.9153 113.921 14.5468 110 10L108 10z"/>
<path style="fill:#09d2e4; stroke:none;" d="M160 10L160 12C172.798 12 185.271 14.8946 198 15L198 21C195.636 21.4825 195.482 21.636 195 24L192 24C191.594 21.9076 191.783 21.9803 190 21C190 26.3748 191.261 30.8416 191.871 36.0394C192.778 43.7606 191.799 49.965 202 48C205.64 53.0859 216.944 49.1315 219 44C217.255 43.11 215.875 42.547 214 42L214 40C216.249 38.8465 216.846 38.2489 218 36C216.686 36.7679 216.768 36.6858 216 38L214 38L212 34C218.226 31.8106 216 21.4535 216 16L220 16C218.494 15.317 217.685 15.1741 216 15C219.148 13.8494 222.213 14.6715 223 11L219 13C214.485 7.83347 201.987 10.7884 196.039 11.4159C193.014 11.7351 190.047 10.1328 186.985 10.0185C178.016 9.6839 168.976 10 160 10z"/>
<path style="fill:#11ade6; stroke:none;" d="M73 18C77.0229 18.6659 79.9089 15.0773 84 15C84.5451 13.3649 84.3649 13.545 86 13C81.143 11.3204 76.8159 15.291 73 18z"/>
<path style="fill:#07d0ea; stroke:none;" d="M145 12L145 14L155 15L154 18C158.873 21.4466 162.031 21.9993 168 22L168 28L160 28C161.341 32.0431 164.87 31.1226 166.972 34.3171C170.778 40.1012 164.625 43.4621 163 48L175 48C165.144 50.9949 154.221 51 144 51L144 53L179 53C187.431 53 195.837 53.4519 204 51L202 48C191.799 48.959 192.849 43.2054 191.871 35.0895C191.284 30.2144 190.001 26.0459 190 21C191.195 22.2228 191.316 22.42 192 24L195 24C195.899 21.8763 195.876 21.8993 198 21L198 15C189.276 14.8199 180.693 12.6848 172 12.0895C163.073 11.4782 153.948 12 145 12z"/>
<path style="fill:#0cbfcc; stroke:none;" d="M231 12C230.534 16.4061 230.912 20.591 231 25C232.699 21.0619 232.912 16.2813 233 12L231 12z"/>
<path style="fill:#00ffff; stroke:none;" d="M75 16L76 17L75 16z"/>
<path style="fill:#07ccee; stroke:none;" d="M128 17L128 26L124 26C125.093 33.5077 132.589 39.7752 140 40C141.076 47.4094 146.538 47.995 153 48C150.25 49.3293 148.05 49.8465 145 50C153.854 53.7153 165.719 49.1915 175 49C171.398 47.488 166.86 47.5757 163 48C165.399 43.915 171.198 39.1143 166.972 33.5988C164.944 30.9511 161.799 31.2671 160 28L168 28L168 22C165.82 22 160.908 22.9538 159 22C157.526 21.2631 156.998 18.9978 156 18C154.24 16.2402 154.398 18.4063 155 16C152.301 16.1174 149.685 16.3476 147 16C146.511 18.5853 146.813 19.6352 148 22C142.019 21.9954 139.169 20.5167 134 18C136.106 17.3562 137.795 17.0941 140 17C136.107 15.3699 132.079 16.4845 128 17z"/>
<path style="fill:#00ffff; stroke:none;" d="M72 18L73 19L72 18M232.333 18.6667C232.278 18.7222 232.222 19.7778 232.667 19.3333C232.722 19.2778 232.778 18.2222 232.333 18.6667z"/>
<path style="fill:#7f7fff; stroke:none;" d="M71 19L72 20L71 19z"/>
<path style="fill:#0f9fdb; stroke:none;" d="M68 24C70.118 22.7825 70.8446 22.133 72 20C69.7511 21.1535 69.1535 21.7511 68 24z"/>
<path style="fill:#13affa; stroke:none;" d="M71 22C66.3464 25.8629 61.2442 29.8645 60 36C62.7825 36 62.318 37.5354 62 40C64.8819 42.6257 67.1491 45.164 68 49C71.5007 51.5058 75.8533 54.0315 78.5255 57.456C81.4829 61.2462 80.5252 65.0891 86 66C86.6162 69.9675 89.14 72.8824 89 77C93.5214 73.927 95.6291 68.4722 99.0301 64.3133C100.486 62.5333 102.581 61.7569 104 60C100.244 59.7523 97.7274 58.5868 95 56C89.4836 61.1744 89.1341 48.9757 84 48C83.3747 43.6661 80.5852 40.3917 80 36L73 32C74.1863 30.8137 74.5838 30.4721 76 30L76 28C73.7915 26.2064 72.5305 24.38 71 22z"/>
<path style="fill:#18a3fe; stroke:none;" d="M66 23C58.7565 32.5777 49.1063 43.8062 47 56C53.5183 59.1659 56.9866 66.6215 61.2199 72.2438C66.7452 79.5821 73.887 81.7926 74 92C78.2523 93.312 80.8609 97.1363 85 99C85.068 90.7815 89.0286 82.9803 89.1389 75.0147C89.1835 71.789 86.8269 69.0358 86 66C81.0851 64.5124 81.6748 61.2312 79.1019 57.456C76.6262 53.8235 71.8601 50.9107 68 49C68.0773 44.8676 65.4681 42.1368 62 40C62.3834 37.384 62.7135 36 60 36C61.7336 30.9013 66.4818 28.0521 68 23L66 23z"/>
<path style="fill:#00ffff; stroke:none;" d="M65 24L66 25L65 24z"/>
<path style="fill:#55aaaa; stroke:none;" d="M64 25L65 26L64 25z"/>
<path style="fill:#2abbcf; stroke:none;" d="M230 25L229 32C230.466 29.55 230.965 27.7055 230 25z"/>
<path style="fill:#00ffff; stroke:none;" d="M61 28L62 29L61 28M60 29L61 30L60 29z"/>
<path style="fill:#1b8edf; stroke:none;" d="M58 32C53.3914 38.4346 47.8318 44.8794 47 53C50.0854 49.0317 51.9454 44.1897 54.7693 40C56.5807 37.3124 58.6677 35.2651 58 32z"/>
<path style="fill:#15c2d2; stroke:none;" d="M227 32C226.132 34.3546 225.426 36.5309 225 39C227.171 36.8377 228.129 34.9408 229 32L227 32z"/>
<path style="fill:#00ffff; stroke:none;" d="M227 36L228 37L227 36z"/>
<path style="fill:#44bbcc; stroke:none;" d="M224.333 39.6667C224.278 39.7222 224.222 40.7778 224.667 40.3333C224.722 40.2777 224.778 39.2222 224.333 39.6667z"/>
<path style="fill:#37b4c3; stroke:none;" d="M219 44L219 46C220.635 45.455 220.455 45.6352 221 44L219 44z"/>
<path style="fill:#48b6c2; stroke:none;" d="M218 46L219 47L218 46z"/>
<path style="fill:#11b4d5; stroke:none;" d="M134 53C140.678 55.8021 150.784 54 158 54C172.691 54 189.566 56.3011 204 53.5316C208.24 52.7182 211.985 50.4785 216 49C209.595 47.106 199.878 52.4076 193 52.9097C173.546 54.33 153.509 53 134 53z"/>
<path style="fill:#00ffff; stroke:none;" d="M214 49L215 50L214 49z"/>
<path style="fill:#45b9b9; stroke:none;" d="M211.667 50.3333C211.222 50.7778 212.278 50.7222 212.333 50.6667C212.778 50.2222 211.722 50.2778 211.667 50.3333z"/>
<path style="fill:#3993e2; stroke:none;" d="M46.3333 51.6667C46.2777 51.7223 46.2222 52.7777 46.6667 52.3333C46.7222 52.2778 46.7778 51.2222 46.3333 51.6667z"/>
<path style="fill:#3d91e3; stroke:none;" d="M45.3333 53.6667C45.2777 53.7223 45.2222 54.7777 45.6667 54.3333C45.7222 54.2778 45.7778 53.2222 45.3333 53.6667z"/>
<path style="fill:#087ce3; stroke:none;" d="M46.3333 53.6667C46.2777 53.7223 46.2222 54.7777 46.6667 54.3333C46.7222 54.2778 46.7778 53.2222 46.3333 53.6667z"/>
<path style="fill:#4cbbd3; stroke:none;" d="M135 54C140.707 56.3949 148.846 55 155 55L199 55C193.293 52.6051 185.154 54 179 54L135 54z"/>
<path style="fill:#1b9bff; stroke:none;" d="M44 55C44.8759 59.5526 43.3948 63.472 43 68C43.9114 66.6234 44.4038 65.5601 45 64C51.3272 67.3027 54.2546 73.2422 58.2176 78.9066C66.3081 90.4708 72.3457 102.998 78 116C79.0977 113.387 78.9928 110.835 79 108L80 112L83 112C83.3538 103.76 84.9696 93.8717 74 92C73.9641 81.5344 67.7302 79.6413 61.7847 72.2438C56.4653 65.6253 53.2255 56.4765 44 55z"/>
<path style="fill:#19a6dc; stroke:none;" d="M106 60L117 56C112.915 54.4542 108.38 56.4836 106 60z"/>
<path style="fill:#2db2e0; stroke:none;" d="M113 56C117.345 57.6959 123.285 56.0031 128 56C123.289 54.0233 117.922 55.378 113 56z"/>
<path style="fill:#55aaaa; stroke:none;" d="M133 55L134 56L133 55z"/>
<path style="fill:#2f8eea; stroke:none;" d="M44.3333 56.6667C44.2777 56.7223 44.2223 57.7777 44.6667 57.3333C44.7222 57.2778 44.7778 56.2222 44.3333 56.6667z"/>
<path style="fill:#3e8cd5; stroke:none;" d="M43.3333 58.6667C43.2777 58.7223 43.2222 59.7778 43.6667 59.3333C43.7222 59.2778 43.7778 58.2222 43.3333 58.6667z"/>
<path style="fill:#0a78d9; stroke:none;" d="M44 58C43.0415 61.021 42.2762 63.8387 42 67C43.7727 64.1785 44.9614 61.2512 44 58z"/>
<path style="fill:#36a3c8; stroke:none;" d="M104.667 60.3333C104.222 60.7778 105.278 60.7223 105.333 60.6667C105.778 60.2223 104.722 60.2778 104.667 60.3333z"/>
<path style="fill:#3490f4; stroke:none;" d="M42.3333 61.6667C42.2777 61.7223 42.2222 62.7778 42.6667 62.3333C42.7222 62.2778 42.7778 61.2222 42.3333 61.6667z"/>
<path style="fill:#1faae3; stroke:none;" d="M99 64L103 63C100.954 62.2489 100.404 62.3444 99 64z"/>
<path style="fill:#3081cc; stroke:none;" d="M41 64L41 67C41.6961 65.4463 41.6961 65.5537 41 64z"/>
<path style="fill:#1e92ff; stroke:none;" d="M45 64L44 68C42.5215 67.0143 42.7968 67 41 67L40 80L44 77L44 86C56.4557 88.9701 51.8238 106.217 64 108C64 111.126 63.4855 114.848 64.5849 117.829C66.7915 123.813 71.3116 127.139 72 134C74.3581 134.659 75.2432 135.267 77 137C77.3801 136.873 79.9443 136.13 80 136C80.5942 134.614 79.6313 132.475 80 131C81.0544 126.782 80.7539 120.744 83 117L84 118C83.56 114.794 83.2164 112.941 80 112L80 108C78.9023 110.613 79.0072 113.165 79 116C71.4439 103.634 66.3831 90.0335 58.2176 77.9599C54.509 72.4763 51.5718 66.2841 45 64z"/>
<path style="fill:#3a98c4; stroke:none;" d="M98 64L98 66C99.6351 65.455 99.455 65.6351 100 64L98 64z"/>
<path style="fill:#3b87d3; stroke:none;" d="M40 67L40 70C40.6961 68.4463 40.6961 68.5537 40 67z"/>
<path style="fill:#55aaaa; stroke:none;" d="M95 69L96 70L95 69z"/>
<path style="fill:#0070e6; stroke:none;" d="M40 70C39.3755 73.3632 39.0283 76.5782 39 80C40.527 76.8225 41.2994 73.3291 40 70z"/>
<path style="fill:#2d70b2; stroke:none;" d="M39.3333 71.6667C39.2777 71.7223 39.2223 72.7777 39.6667 72.3333C39.7222 72.2778 39.7778 71.2222 39.3333 71.6667z"/>
<path style="fill:#3c96c3; stroke:none;" d="M92.3333 72.6667C92.2779 72.7222 92.2222 73.7778 92.6667 73.3333C92.7222 73.2778 92.7778 72.2222 92.3333 72.6667z"/>
<path style="fill:#0000ff; stroke:none;" d="M38 75L39 76L38 75z"/>
<path style="fill:#2e83e9; stroke:none;" d="M38 76L38 82C38.9511 79.7147 38.9511 78.2853 38 76z"/>
<path style="fill:#2396e6; stroke:none;" d="M90 76C87.9614 79.3271 87.18 82.1083 87 86C88.9749 83.0253 90.7379 79.5651 90 76z"/>
<path style="fill:#2090ff; stroke:none;" d="M43 77C38.7372 80.94 38.6384 85.4669 37.8696 91C36.5834 100.257 35.001 109.651 35 119C38.5513 117.992 38.6055 115.413 39.3843 112C40.9111 105.308 42 98.8891 42 92C45.0786 99.2958 42.0822 104.619 42 112C45.0132 111.492 45.873 110.841 47 108C49.7939 112.051 50.5639 117.112 52.821 121.49C55.4633 126.615 60.1068 129.827 60 136L64 136L64 146C66.2317 146.363 67.7683 146.363 70 146C70.0318 148.875 69.7923 151.074 72 153C68.9927 154.979 69.0148 156.498 69 160L66 160C65.9465 164.847 64.3042 169.216 64 174C68.5561 172.496 70.2763 168.199 72.1381 164C76.0268 155.229 78.801 145.64 79 136L72 134C71.6198 126.594 66.8739 123.321 64.5849 116.91C63.6038 114.163 64.0003 110.87 64 108C51.9572 104.863 57.1058 87.7578 44 86C43.9983 82.8741 44.2129 79.8897 43 77z"/>
<path style="fill:#00ffff; stroke:none;" d="M90 78L91 79L90 78z"/>
<path style="fill:#3483e0; stroke:none;" d="M37 82L37 87C37.8299 84.9695 37.8299 84.0305 37 82z"/>
<path style="fill:#096bda; stroke:none;" d="M38 82L38 87C38.8299 84.9695 38.8299 84.0305 38 82z"/>
<path style="fill:#3f94bf; stroke:none;" d="M88 83L88 86C88.6961 84.4463 88.6961 84.5537 88 83z"/>
<path style="fill:#008aec; stroke:none;" d="M86 86C86.168 88.4025 86.1969 89.4602 88 91C87.4494 89.1749 86.9241 87.6482 86 86z"/>
<path style="fill:#3388cc; stroke:none;" d="M87 86L87 90C87.7102 88.2405 87.7102 87.7595 87 86z"/>
<path style="fill:#7f7f7f; stroke:none;" d="M88 86L89 87L88 86z"/>
<path style="fill:#0569e1; stroke:none;" d="M37 87L37 94C38.0595 91.4657 38.0595 89.5343 37 87z"/>
<path style="fill:#0000ff; stroke:none;" d="M36 88L37 89L36 88z"/>
<path style="fill:#3685ea; stroke:none;" d="M36 89L36 94C36.8299 91.9695 36.8299 91.0305 36 89z"/>
<path style="fill:#1786df; stroke:none;" d="M85 91L85 106C86.7404 101.852 86.7404 95.1477 85 91z"/>
<path style="fill:#3f84c4; stroke:none;" d="M86 91L86 98C87.0595 95.4657 87.0595 93.5343 86 91z"/>
<path style="fill:#2487ff; stroke:none;" d="M42 92C41.9992 99.2146 41.3092 113.75 36 119C36.572 121.377 36.8905 123.558 37 126C39.3168 124.617 39.9626 123.513 41 121C42.8442 124.728 45.7144 128.41 47.2631 132.129C49.3041 137.029 47.9556 142.06 54 144C54 150.045 55.3825 158.039 53.49 163.816C52.1797 167.815 48.6445 169.577 48 174C51.7651 172.913 54.8107 171.269 58 169L56 166C64.325 164.557 62.2 152.757 66 147C64.4105 143.447 63.7542 139.884 64 136L60 136C60.5042 129.222 55.5984 126.251 52.821 120.69C50.7166 116.476 50.257 111.45 47 108C45.5382 110.433 44.712 111.177 42 112C42.2038 105.01 45.9943 98.6679 42 92z"/>
<path style="fill:#1a6bde; stroke:none;" d="M36 94L35 109C37.0993 104.632 37.8993 98.5262 36 94z"/>
<path style="fill:#3974b9; stroke:none;" d="M35 96L35 103C36.0595 100.466 36.0595 98.5343 35 96z"/>
<path style="fill:#00ffff; stroke:none;" d="M86 98L87 99L86 98z"/>
<path style="fill:#0085f0; stroke:none;" d="M84 99L83 115C84.854 110.623 85.8615 103.446 84 99z"/>
<path style="fill:#3579ef; stroke:none;" d="M34 104L34 110C34.9511 107.715 34.9511 106.285 34 104z"/>
<path style="fill:#00ffff; stroke:none;" d="M136 105L137 106L136 105M139 105L140 106L139 105M141 105L142 106L141 105z"/>
<path style="fill:#36a3c8; stroke:none;" d="M143 105C146.959 106.661 151.74 106 156 106L179 106C175.041 104.339 170.26 105 166 105L143 105z"/>
<path style="fill:#7f7fff; stroke:none;" d="M179 105L180 106L179 105z"/>
<path style="fill:#00ffff; stroke:none;" d="M85 106L86 107L85 106M123 106L124 107L123 106z"/>
<path style="fill:#12b5d8; stroke:none;" d="M124 106C128.72 107.981 134.92 107 140 107C154.225 107 171.786 104.128 185 110C181.797 104.517 174.602 106 169 106L124 106z"/>
<path style="fill:#007f7f; stroke:none;" d="M182 106L183 107L182 106z"/>
<path style="fill:#3884c1; stroke:none;" d="M84 107L84 114C85.0595 111.466 85.0595 109.534 84 107z"/>
<path style="fill:#0d9de6; stroke:none;" d="M115 120C116.916 117.326 117.437 113.78 119.652 111.303C122.708 107.886 127.797 108.035 132 108C122.263 103.914 115.227 110.324 115 120z"/>
<path style="fill:#0ebcef; stroke:none;" d="M126 108L127 114C128.015 112.861 128.309 112.388 129 111C131.201 111.481 131.799 111.481 134 111C134 115.784 133.229 121.324 134.313 126C135.144 129.58 137.62 132.219 137.941 136C138.602 143.77 135.717 149.699 134 157C137.576 155.563 137.877 153.714 138 150L140 150C139.979 155.999 137.77 160.313 136.46 166C135.256 171.228 135.303 176.664 133.495 181.819C132.001 186.077 128.64 188.227 128 193L132 192C132 189.16 135.114 183.574 138 182C139.011 181.448 140.895 182.368 142 182L143 180L143 182C144.009 179.767 144.405 177.396 145 175L147 176C149.44 169.348 150.821 162.963 152.455 156.17C153.204 153.056 155.097 149.942 155.285 146.715C155.629 140.836 154.012 134.096 154 128C153.986 120.742 153.625 110.283 145 110L145 108L160 108C150.494 104.011 136.061 107.568 126 108z"/>
<path style="fill:#0bc8e6; stroke:none;" d="M152 108L152 110C157.659 110.431 163.488 109.703 169 111C166.68 120.744 168.64 131.066 167.946 140.985C167.672 144.898 164.57 149.001 168 152L168 154C161.42 159.6 164.958 169.987 165.17 177.17C165.256 180.077 164.15 183.06 164 186C166.597 184.67 167.591 183.564 169 181L172 185C172.813 182.712 172.399 181.992 171 180C177.184 177.566 178.091 169.872 179.148 164C180.358 157.284 182.548 150.895 183.12 144C183.587 138.384 182.703 132.645 183.09 127C183.441 121.861 185.975 113.894 182.106 109.514C179.86 106.97 176.107 107.042 173 107.004C165.931 106.917 159.031 107.942 152 108z"/>
<path style="fill:#0fb9f7; stroke:none;" d="M119 129C118.598 130.944 118.598 131.056 119 133C117.217 133.98 117.406 133.908 117 136C118.819 134.636 118.031 134.508 120 135C121.092 130.222 121.986 125.93 122 121L124 121C124.991 130.784 128.783 139.455 130.624 149C131.413 153.088 130.396 157.257 134 160C134.544 151.622 138.355 144.737 137.981 136C137.798 131.739 135.236 128.977 134.313 125C133.298 120.624 134 115.476 134 111C132.15 111.202 130.85 111.202 129 111C128.014 112.479 128 112.203 128 114C126.957 111.905 126.397 110.301 126 108C123.748 108.496 121.371 108.87 119.65 110.564C115.398 114.752 112.321 126.315 119 129z"/>
<path style="fill:#0cc4ea; stroke:none;" d="M145 108L145 110C152.831 110.597 153.881 120.213 153.995 127.001C154.103 133.425 155.14 140.397 154.834 146.715C154.66 150.318 152.557 153.538 152.129 157.09C151.386 163.246 152 169.8 152 176L156 176C156.358 170.716 158.951 166.449 159 161C159.644 163.106 159.906 164.795 160 167C160.985 164.668 160.981 162.543 161 160L166 160C166.174 157.388 166.418 156.057 168 154L168 152C165.395 148.407 167.827 145.123 167.981 140.985C168.355 130.984 167.164 120.889 169 111C164.903 109.792 161.176 110.646 157.015 110.201C152.829 109.753 149.321 108.048 145 108z"/>
<path style="fill:#02c1dd; stroke:none;" d="M182 108C183.5 112.809 183.999 116.968 184 122C186.432 117.794 185.42 111.349 182 108z"/>
<path style="fill:#1367d9; stroke:none;" d="M34 110L34 119C35.2561 116.006 35.2561 112.994 34 110z"/>
<path style="fill:#28b5c9; stroke:none;" d="M185 110L185 119C186.256 116.006 186.256 112.994 185 110z"/>
<path style="fill:#316ebe; stroke:none;" d="M33 112L33 119C34.0594 116.466 34.0595 114.534 33 112z"/>
<path style="fill:#0000ff; stroke:none;" d="M84 114L85 115L84 114z"/>
<path style="fill:#1680e6; stroke:none;" d="M82 117C81.4958 123.388 81 129.569 81 136C82.7676 131.788 84.7129 120.614 82 117z"/>
<path style="fill:#2cacf4; stroke:none;" d="M114 117L114 123C114.951 120.715 114.951 119.285 114 117z"/>
<path style="fill:#0860e6; stroke:none;" d="M33 119L33 124C33.8299 121.97 33.8299 121.03 33 119z"/>
<path style="fill:#2684fe; stroke:none;" d="M34 119C34 122.671 33.8507 129.916 32 133L31 132C32.9635 147.55 28.0517 163.389 28 179L30 179L30 174C31.0123 176.373 31.6215 178.449 32 181C40.6792 178.625 50.3466 173.775 53.49 164.674C55.5317 158.764 54 150.221 54 144C48.3049 140.963 49.5343 136.397 47.2631 131.259C45.8301 128.018 43.046 123.92 41 121C39.7803 123.078 38.7933 124.417 37 126C36.9481 123.472 36.7224 121.418 36 119L34 119z"/>
<path style="fill:#00ffff; stroke:none;" d="M185 119L186 120L185 119z"/>
<path style="fill:#337ae2; stroke:none;" d="M32 120L32 126C32.9511 123.715 32.9511 122.285 32 120z"/>
<path style="fill:#14abf4; stroke:none;" d="M122 121C121.959 125.868 120.701 130.234 120 135C118.328 134.662 118.69 134.463 118 136C118.031 134.168 117.921 134.441 119 133L119 129L115 128C110.627 138.32 112.545 151.078 109.441 162C106.975 170.68 103.22 180.453 98.24 188C94.9182 193.035 90.4509 197.096 87 202C89.0347 203.226 89.3265 203.703 90 206L94 204L93 200C94.9522 200.511 95.457 200.733 97 202L99 202C102.293 199.265 106.979 197.544 111 196C112.406 187.031 119.311 179.039 120 170L122 170L122 176C129.395 173.606 127.043 163.13 132 158C129.095 145.797 126.439 133.338 124 121L122 121z"/>
<path style="fill:#00ffff; stroke:none;" d="M185 121L186 122L185 121M113.333 122.667C113.278 122.722 113.222 123.778 113.667 123.333C113.722 123.278 113.778 122.222 113.333 122.667z"/>
<path style="fill:#34bbd6; stroke:none;" d="M184 122L184 126C184.71 124.24 184.71 123.76 184 122z"/>
<path style="fill:#3d7fc5; stroke:none;" d="M82 123L82 131C83.1614 128.23 83.1614 125.77 82 123z"/>
<path style="fill:#0c94de; stroke:none;" d="M114 123C113.883 125.73 113.501 128.314 113 131C114.993 128.369 115.275 126.07 114 123z"/>
<path style="fill:#10b5c8; stroke:none;" d="M183 123L183 133C184.346 129.793 184.346 126.207 183 123z"/>
<path style="fill:#3795d1; stroke:none;" d="M113 124L113 129C113.83 126.97 113.83 126.03 113 124z"/>
<path style="fill:#1263d6; stroke:none;" d="M32 126L32 133C33.0595 130.466 33.0595 128.534 32 126z"/>
<path style="fill:#41acbd; stroke:none;" d="M184 126L184 133C185.059 130.466 185.059 128.534 184 126z"/>
<path style="fill:#2864b5; stroke:none;" d="M31 128L31 132C31.7102 130.24 31.7102 129.759 31 128z"/>
<path style="fill:#0478f1; stroke:none;" d="M80 130L79 142C80.768 138.321 81.5917 133.829 80 130z"/>
<path style="fill:#28a2eb; stroke:none;" d="M112 132L112 138C112.951 135.715 112.951 134.285 112 132z"/>
<path style="fill:#27b0d1; stroke:none;" d="M183 133L183 143C184.346 139.793 184.346 136.207 183 133z"/>
<path style="fill:#00ffff; stroke:none;" d="M184.333 133.667C184.278 133.722 184.222 134.778 184.667 134.333C184.722 134.278 184.778 133.222 184.333 133.667z"/>
<path style="fill:#286bd6; stroke:none;" d="M30 135L30 142C31.0595 139.466 31.0595 137.534 30 135z"/>
<path style="fill:#126be3; stroke:none;" d="M31 135L30 151C31.854 146.623 32.8615 139.446 31 135z"/>
<path style="fill:#00ffff; stroke:none;" d="M81 136L82 137L81 136z"/>
<path style="fill:#3784ce; stroke:none;" d="M80 137L79 147C80.7035 143.796 81.3895 140.407 80 137z"/>
<path style="fill:#0e90de; stroke:none;" d="M112 138L112 144C112.951 141.715 112.951 140.285 112 138z"/>
<path style="fill:#3892cb; stroke:none;" d="M111 140L111 144C111.71 142.241 111.71 141.759 111 140z"/>
<path style="fill:#0c78e5; stroke:none;" d="M78 142L78 147C78.8299 144.97 78.8299 144.03 78 142z"/>
<path style="fill:#306ab9; stroke:none;" d="M29 143L29 149C29.9511 146.715 29.9511 145.285 29 143z"/>
<path style="fill:#0990e2; stroke:none;" d="M111 144C109.511 148.899 109.668 153.926 108.741 158.91C107.956 163.129 106.193 166.591 106 171C110.232 165.093 113.87 150.903 111 144z"/>
<path style="fill:#2588ff; stroke:none;" d="M56 166C56.6614 167.396 56.9644 167.814 58 169C49.5416 173.45 40.909 177.699 32 181L31 174C30.2211 175.769 30.0876 177.036 30 179L28 179L28 172C26.7909 174.88 27.0763 177.923 26.5363 181C26.0691 183.662 25.1641 186.268 25.1343 188.995C25.0603 195.754 31.8189 195.633 37.0039 194.468C44.113 192.87 51.3574 188.672 56.9961 184.181C60.4183 181.456 63.0732 177.988 67 176C63.5825 170.837 65.9799 165.886 66 160L69 160C69.2206 156.993 69.4547 155.635 72 154C70.4935 151.294 70.0905 149.087 70 146C59.2132 148.885 66.2232 162.781 56 166z"/>
<path style="fill:#3faac9; stroke:none;" d="M182 146L182 150C182.71 148.241 182.71 147.759 182 146z"/>
<path style="fill:#1477dc; stroke:none;" d="M77 147L76 155C77.9932 152.369 78.275 150.07 77 147z"/>
<path style="fill:#3c78b4; stroke:none;" d="M78 147L78 151C78.7102 149.241 78.7102 148.759 78 147z"/>
<path style="fill:#3982e0; stroke:none;" d="M29.3333 149.667C29.2778 149.722 29.2222 150.778 29.6667 150.333C29.7222 150.278 29.7778 149.222 29.3333 149.667z"/>
<path style="fill:#10b5eb; stroke:none;" d="M138 150C137.684 154.133 135.204 156.279 134 160L130 158C126.736 168.294 124.88 180.488 118.981 189.705C117.769 191.6 115.526 192.417 114.278 194.299C112.587 196.848 112.467 200.093 110.527 202.53C107.227 206.676 102.904 208.304 102 214C97.307 214.579 89.3788 220.858 87 225C81.2531 223.471 77.6302 227.615 72 228L72 230C79.1514 229.936 84.0724 226.766 90.6898 225.031C94.5804 224.01 99.1677 224.904 102.852 223.144C105.199 222.023 105.604 220.336 106 218C114.738 216.728 118.958 209.217 123.258 202.51C124.498 200.577 126.255 199.063 127.157 196.907C128.215 194.379 128.024 191.575 129.278 189.093C130.442 186.79 132.6 185.123 133.495 182.676C135.352 177.595 135.268 172.173 136.46 167C137.859 160.929 139.995 156.4 140 150L138 150z"/>
<path style="fill:#2c73da; stroke:none;" d="M28 151L28 158C29.0595 155.466 29.0595 153.534 28 151z"/>
<path style="fill:#0a63e3; stroke:none;" d="M29 151L29 158C30.0595 155.466 30.0595 153.534 29 151z"/>
<path style="fill:#0000ff; stroke:none;" d="M78 151L79 152L78 151z"/>
<path style="fill:#7f7f7f; stroke:none;" d="M109 151L110 152L109 151z"/>
<path style="fill:#41b6d3; stroke:none;" d="M181.333 152.667C181.278 152.722 181.222 153.778 181.667 153.333C181.722 153.278 181.778 152.222 181.333 152.667z"/>
<path style="fill:#3178c9; stroke:none;" d="M75 155L75 160C76.2549 158.249 76.6137 157.143 77 155L75 155z"/>
<path style="fill:#00ffff; stroke:none;" d="M108 156L109 157L108 156z"/>
<path style="fill:#299ee8; stroke:none;" d="M108 157L108 162C108.83 159.969 108.83 159.03 108 157z"/>
<path style="fill:#00ffff; stroke:none;" d="M181 157L182 158L181 157z"/>
<path style="fill:#155dd3; stroke:none;" d="M28 158L28 164C28.9511 161.715 28.9511 160.285 28 158z"/>
<path style="fill:#1975e2; stroke:none;" d="M74 158L69 171C72.9394 168.417 75.391 162.583 74 158z"/>
<path style="fill:#31b1c6; stroke:none;" d="M180 158C179.438 161.025 179.064 163.922 179 167C180.404 164.078 181.104 161.08 180 158z"/>
<path style="fill:#3763b1; stroke:none;" d="M27 160L27 163C27.6961 161.446 27.6961 161.554 27 160z"/>
<path style="fill:#0cc5e4; stroke:none;" d="M161 160L161 167C160.356 164.894 160.094 163.205 160 161C158.073 165.455 156.148 171.115 156 176C151.334 177.549 151.947 181.641 152.004 186C152.102 193.509 156.925 201.724 151 208L151 210C153.118 211.218 153.845 211.867 155 214C159.905 211.398 160.611 208.416 163.542 204.075C169.919 194.628 174.028 186.132 177 175L171 180C172.006 181.731 172.546 183.053 173 185L169 181C167.416 183.012 166.033 184.46 164 186C164.29 183.085 165.611 180.076 165.532 177.17C165.377 171.52 164 165.858 164 160L161 160z"/>
<path style="fill:#3f7fbf; stroke:none;" d="M74.3333 161.667C74.2778 161.722 74.2222 162.778 74.6667 162.333C74.7222 162.278 74.7778 161.222 74.3333 161.667z"/>
<path style="fill:#207aec; stroke:none;" d="M27 163L28 171C30.031 167.908 29.4202 165.684 27 163z"/>
<path style="fill:#0ec1e2; stroke:none;" d="M150 164C149.728 168.192 148.1 171.964 147 176L145 175C144.278 177.418 144.052 179.472 144 182C142.977 180.466 143.195 180.598 142 180C140.457 181.267 139.952 181.489 138 182C136.685 188.406 136.51 195.996 132.791 201.525C127.998 208.653 118.269 215.125 118 224C113.635 224.34 112.34 225.635 112 230C109.472 230.052 107.418 230.278 105 231C106.769 231.779 108.036 231.912 110 232C107.894 232.644 106.205 232.906 104 233L104 236L112 234C112.335 238.764 114.044 241.188 119 240C117.752 239.315 117.452 239.251 116 239C118.442 236.558 119.336 233.165 122.333 231C124.036 229.77 126.433 229.762 127.5 227.667C128.675 225.36 127.235 223.453 129.167 221.167C130.744 219.299 135.404 211.533 136 216C139.723 207.214 140.769 194.891 152 192L152 164L150 164z"/>
<path style="fill:#307fe7; stroke:none;" d="M26 167L26 174C27.0595 171.466 27.0595 169.534 26 167z"/>
<path style="fill:#0061e3; stroke:none;" d="M27 167L27 172C27.8299 169.97 27.8299 169.03 27 167z"/>
<path style="fill:#32a9c0; stroke:none;" d="M178 168L178 171C178.696 169.446 178.696 169.554 178 168z"/>
<path style="fill:#328bc1; stroke:none;" d="M105 169L105 172C105.696 170.446 105.696 170.554 105 169z"/>
<path style="fill:#13afec; stroke:none;" d="M120 170C118.625 178.93 111.826 186.892 111 196C107.076 196.962 101.525 198.833 99 202L97 202C95.686 200.382 95.1227 200.307 93 200L94 204L90 206L90 202C84.392 203.07 81.0076 206.822 75.9892 209.071C67.8632 212.713 59.6955 215.726 51 218C56.1187 227.282 67.6262 218.275 71 212L76 213L72 214L73 217L80 215C81.5208 222.097 93.8681 211.566 97.2222 209.306C101.51 206.416 106.602 207.706 110.694 203.389C113.066 200.888 112.602 196.848 114.639 194.111C115.866 192.463 118.135 192.275 119.278 190.667C120.352 189.154 119.935 186.922 120.611 185.222C121.877 182.041 123.89 179.303 125 176C122.455 174.365 122.221 173.007 122 170L120 170z"/>
<path style="fill:#307fc9; stroke:none;" d="M68 171L66 175C68.133 173.845 68.7824 173.118 70 171L68 171z"/>
<path style="fill:#2fb3cb; stroke:none;" d="M177 171L177 175C177.71 173.241 177.71 172.759 177 171z"/>
<path style="fill:#3195da; stroke:none;" d="M104 172L104 175C104.696 173.446 104.696 173.554 104 172z"/>
<path style="fill:#136cd4; stroke:none;" d="M26 174L26 182C27.1614 179.23 27.1614 176.77 26 174z"/>
<path style="fill:#3b64b7; stroke:none;" d="M25 175L25 182C26.0595 179.466 26.0595 177.534 25 175z"/>
<path style="fill:#2b8cd0; stroke:none;" d="M103 175L100 183C102.654 180.659 104.205 178.518 103 175z"/>
<path style="fill:#1f78d4; stroke:none;" d="M64 176C56.585 185.651 46.6612 189.954 36 195C39.7026 196.28 42.6455 194.262 46 192.601C53.8169 188.731 60.8817 184.246 66 177L64 176z"/>
<path style="fill:#5555aa; stroke:none;" d="M66 176L67 177L66 176z"/>
<path style="fill:#55aabf; stroke:none;" d="M176.333 176.667C176.278 176.722 176.222 177.778 176.667 177.333C176.722 177.278 176.778 176.222 176.333 176.667z"/>
<path style="fill:#2978e4; stroke:none;" d="M24 182L24 195C25.5909 191.209 25.5909 185.791 24 182z"/>
<path style="fill:#0167ed; stroke:none;" d="M25 182L25 186C25.7102 184.241 25.7102 183.759 25 182z"/>
<path style="fill:#0fbde2; stroke:none;" d="M137 182C134.754 185.277 132.575 188.017 132 192C126.765 193.715 123.796 201.291 121.081 205.87C117.843 211.329 112.201 216.409 106 218C103.228 227.817 92.871 230.06 84.4244 232.714C78.503 234.574 72.8349 237.803 66.9853 239.491C64.0659 240.333 60.9541 239.651 58.0394 240.509C53.8403 241.746 50.4148 244.573 46 245.544C41.0056 246.643 35.9501 245.537 31 247C35.4687 248.875 41.1913 248 46 248C53.2035 248 62.6921 249.617 69.561 247.272C72.7907 246.169 75.1931 243.766 78.1844 242.25C80.9773 240.835 84.0614 240.399 86.9105 239.18C95.3918 235.552 102.464 230.606 112 230C112.636 226.007 114.007 224.636 118 224C118.444 217.518 123.063 214.67 127.102 210.102C132.749 203.715 134.919 198.137 136.259 190C136.746 187.045 137.953 184.895 137 182z"/>
<path style="fill:#3f9fbf; stroke:none;" d="M174.333 182.667C174.278 182.722 174.222 183.778 174.667 183.333C174.722 183.278 174.778 182.222 174.333 182.667z"/>
<path style="fill:#0c90e3; stroke:none;" d="M99 183L98 187C99.8698 185.771 100.224 185.132 101 183L99 183z"/>
<path style="fill:#7f7fff; stroke:none;" d="M57 185L58 186L57 185z"/>
<path style="fill:#1793d9; stroke:none;" d="M81 205C88.8686 203.09 95.532 193.962 99 187C92.6263 190.252 85.5249 199.388 81 205z"/>
<path style="fill:#7f7f7f; stroke:none;" d="M23 190L24 191L23 190z"/>
<path style="fill:#007f7f; stroke:none;" d="M50 190L51 191L50 190z"/>
<path style="fill:#5555aa; stroke:none;" d="M23 191L24 192L23 191M48 191L49 192L48 191z"/>
<path style="fill:#3f7fbf; stroke:none;" d="M45.6667 192.333C45.2222 192.778 46.2778 192.722 46.3333 192.667C46.7778 192.222 45.7222 192.278 45.6667 192.333z"/>
<path style="fill:#0dc4e3; stroke:none;" d="M137 216C136.014 214.522 136 214.797 136 213C130.392 217.738 127.035 221.786 132 228C125.897 230.59 126.217 236.084 132 239C138.039 232.178 147.63 228.585 152.656 220.999C155.4 216.857 156.076 212.04 151 210L151 208C154.248 205.658 156.655 193.404 150.865 192.451C148.215 192.016 145.634 194.784 144.029 196.519C139.19 201.748 137.02 209.069 137 216z"/>
<path style="fill:#1569c3; stroke:none;" d="M25 193C25.6735 195.297 25.9653 195.774 28 197C27.1571 195.231 26.4591 194.312 25 193z"/>
<path style="fill:#0000ff; stroke:none;" d="M44 193L45 194L44 193z"/>
<path style="fill:#00ffff; stroke:none;" d="M92 193L93 194L92 193z"/>
<path style="fill:#7f7fff; stroke:none;" d="M170 193L171 194L170 193z"/>
<path style="fill:#0f81f4; stroke:none;" d="M30 194L28 195C29.482 195.791 30.7964 195.87 30 194z"/>
<path style="fill:#0f66d0; stroke:none;" d="M31 195C32.769 195.779 34.0359 195.912 36 196C34.231 195.221 32.9641 195.088 31 195z"/>
<path style="fill:#3a77c2; stroke:none;" d="M28 196C30.59 197.499 33.0097 197.096 36 197C33.3873 195.902 30.8355 196.007 28 196z"/>
<path style="fill:#7f7fff; stroke:none;" d="M30 197L31 198L30 197z"/>
<path style="fill:#6699cc; stroke:none;" d="M168 197L169 198L168 197z"/>
<path style="fill:#00ffff; stroke:none;" d="M167 199L168 200L167 199z"/>
<path style="fill:#34adca; stroke:none;" d="M165 201L164 205C165.146 203.36 165.393 202.924 165 201z"/>
<path style="fill:#18aec9; stroke:none;" d="M163 203C162.014 204.479 162 204.203 162 206C163.766 205.021 163.955 204.778 163 203z"/>
<path style="fill:#00ffff; stroke:none;" d="M80 204L81 205L80 204z"/>
<path style="fill:#139ade; stroke:none;" d="M74 210C77.3349 209.125 79.2274 207.978 81 205C77.9289 206.137 75.7822 207.229 74 210z"/>
<path style="fill:#48b6b6; stroke:none;" d="M162.333 206.667C162.278 206.722 162.222 207.778 162.667 207.333C162.722 207.278 162.778 206.222 162.333 206.667z"/>
<path style="fill:#14afe8; stroke:none;" d="M80 215C76.5778 215.6 74.8012 216.199 72 214L76 214C74.307 212.662 73.1493 212.34 71 212C64.1416 220.707 55.6015 224.542 46 217C41.4602 219.525 37.0392 218.699 32.0394 219.054C27.7188 219.361 24.4409 220.514 20 220C16.7097 225.856 2.84959 230.69 8 239C8.34013 236.982 8.32335 236.032 8 234L14 235L14 231C22.0388 236.591 31.2356 233.16 40.0394 232.129C50.2435 230.934 59.7088 232.395 69.8302 229.795C75.6596 228.297 80.9625 223.966 87 225C90.6606 221.099 96.9417 215.536 102 214C102.659 211.642 103.267 210.757 105 209C98.4243 206.248 93.555 211.928 87.9606 214.708C84.8086 216.275 82.3228 218.249 80 215z"/>
<path style="fill:#3ba1db; stroke:none;" d="M72.6667 209.333C72.2222 209.778 73.2778 209.722 73.3333 209.667C73.7778 209.222 72.7222 209.278 72.6667 209.333z"/>
<path style="fill:#3faaaa; stroke:none;" d="M160.333 209.667C160.278 209.722 160.222 210.778 160.667 210.333C160.722 210.278 160.778 209.222 160.333 209.667z"/>
<path style="fill:#1c95de; stroke:none;" d="M58 214C62.3456 215.806 66.0138 214.004 70 212C66.1442 210.972 62.0587 213.731 58 214z"/>
<path style="fill:#29b0ce; stroke:none;" d="M157 212L157 215C158.195 213.777 158.316 213.58 159 212L157 212z"/>
<path style="fill:#4b96b4; stroke:none;" d="M61 213C62.2484 213.685 62.5484 213.749 64 214C62.7516 213.315 62.4516 213.251 61 213z"/>
<path style="fill:#0fb2c3; stroke:none;" d="M156 213L155 217C156.303 215.332 156.553 215.008 156 213z"/>
<path style="fill:#7f7f7f; stroke:none;" d="M53 215L54 216L53 215z"/>
<path style="fill:#39a2cf; stroke:none;" d="M54 215C55.2484 215.685 55.5484 215.749 57 216C55.7516 215.315 55.4516 215.251 54 215z"/>
<path style="fill:#0393dc; stroke:none;" d="M53 216C55.5232 216.99 57.3583 216.617 60 216C57.6066 215.259 55.5074 215.698 53 216z"/>
<path style="fill:#029ae3; stroke:none;" d="M46 219C48.3771 218.428 50.558 218.11 53 218C50.112 216.653 47.943 216.33 46 219z"/>
<path style="fill:#269cd8; stroke:none;" d="M48 216C49.769 216.779 51.0359 216.912 53 217C51.231 216.221 49.9641 216.088 48 216z"/>
<path style="fill:#00ffff; stroke:none;" d="M37 217L38 218L37 217z"/>
<path style="fill:#0d88cb; stroke:none;" d="M37 218C39.6127 219.098 42.1645 218.993 45 219C42.3072 217.799 39.922 217.685 37 218z"/>
<path style="fill:#4196cc; stroke:none;" d="M39 217C41.0521 217.874 42.7472 217.953 45 218C42.9479 217.126 41.2528 217.047 39 217z"/>
<path style="fill:#7f7f7f; stroke:none;" d="M155 217L156 218L155 217z"/>
<path style="fill:#26a1dd; stroke:none;" d="M28 218C30.8897 219.213 33.8741 218.998 37 219C34.1103 217.787 31.1259 218.002 28 218z"/>
<path style="fill:#45a2b9; stroke:none;" d="M154 218L155 219L154 218z"/>
<path style="fill:#7f7f7f; stroke:none;" d="M23 219L24 220L23 219z"/>
<path style="fill:#37a0c7; stroke:none;" d="M24 219C25.506 219.683 26.3148 219.826 28 220C26.494 219.317 25.6852 219.174 24 219z"/>
<path style="fill:#0e94d3; stroke:none;" d="M23 220C24.769 220.779 26.0359 220.912 28 221C26.231 220.221 24.9641 220.088 23 220z"/>
<path style="fill:#0f9fd4; stroke:none;" d="M2 245C5.0402 240.937 5.63807 235.611 8.85031 231.59C12.1012 227.521 17.2338 225.346 20 221C9.53953 224.107 2.49008 234.301 2 245z"/>
<path style="fill:#10b7e3; stroke:none;" d="M14 231L14 235L8 234L8 239C6.81368 237.964 6.39636 237.661 5 237L3 245L8 241C7.53203 243.027 7.50044 243.991 8 246C12.6243 246.454 13.4783 248.924 15 253C21.3038 244.483 36.3254 247.346 46 245.741C50.8494 244.936 54.4606 241.824 59.0147 240.509C61.9341 239.667 65.0459 240.349 67.9606 239.491C70.4964 238.744 72.5748 236.994 75.0895 236.149C84.7488 232.904 94.5971 231.069 103 225C93.8854 221.182 85.6574 227.993 77 229.625C64.7404 231.936 52.4436 231.188 40.0394 232.054C30.4132 232.726 23.1995 235.669 14 231z"/>
<path style="fill:#0ec3de; stroke:none;" d="M127 224C127.002 228.965 123.509 229.291 120.397 232.397C118.709 234.083 117.601 236.244 116 238L119 240C114.354 240.509 112.629 238.486 112 234C107.195 234.64 100.516 237.491 96.375 239.993C92.5852 242.283 90.5501 244.968 86 246C84.7413 248.774 82.8964 251.09 82 254C80.0376 252.861 78.4546 251.451 76 252.333C72.181 253.706 69.109 258.082 65 255C59.6243 260.21 53.0652 260 46 260C34.5729 260 23.0907 260.934 12 258L12 263L8 263C11.6911 265.796 16.5152 265 21 265L48 265C46.231 264.221 44.9641 264.088 43 264C50.9716 261.644 59.7797 263.626 68 262.83C84.915 261.193 101.233 255.64 116.039 247.625C121.038 244.919 125.89 243.031 130 239C127.245 233.96 126.833 231.223 132 228C130.464 225.71 129.613 224.838 127 224z"/>
<path style="fill:#00b9cc; stroke:none;" d="M142 230C143.58 229.316 143.777 229.195 145 228C142.908 228.406 142.98 228.217 142 230z"/>
<path style="fill:#7f7fff; stroke:none;" d="M144 229L145 230L144 229z"/>
<path style="fill:#3ab1c2; stroke:none;" d="M139 234C140.753 232.67 141.67 231.753 143 230C140.751 231.154 140.154 231.751 139 234z"/>
<path style="fill:#00ffff; stroke:none;" d="M143 230L144 231L143 230z"/>
<path style="fill:#0dc0e0; stroke:none;" d="M15 253C13.8033 248.593 13.0954 245.559 8 246C7.79872 244.243 7.77338 242.752 8 241C-2.55987 246.833 -1.08968 262.845 12 263L12 258C23.4782 262.183 37.8964 260.005 50 260C55.5027 259.998 61.5706 259.854 65 255C70.7618 258.017 75.6633 251.757 82 254C83.3769 251.231 85.1554 249.004 86 246C90.6397 245.382 92.7106 243.096 96.375 240.542C100.418 237.723 103.541 238.749 104 233L110 233C104.185 230.56 99.2699 232.696 94 235.216C88.8051 237.7 83.3456 239.388 78.1844 241.823C74.8607 243.39 72.2609 246.097 68.7106 247.272C59.052 250.466 45.1394 248 35 248C27.7125 248 18.9168 245.718 15 253z"/>
<path style="fill:#4eb0c4; stroke:none;" d="M138 234L139 235L138 234z"/>
<path style="fill:#15b8c7; stroke:none;" d="M133 238C134.949 237.064 135.55 236.608 137 235C134.703 235.674 134.226 235.965 133 238z"/>
<path style="fill:#007f7f; stroke:none;" d="M137 235L138 236L137 235z"/>
<path style="fill:#48b6b6; stroke:none;" d="M132.667 238.333C132.222 238.778 133.278 238.722 133.333 238.667C133.778 238.222 132.722 238.278 132.667 238.333z"/>
<path style="fill:#21b6ba; stroke:none;" d="M127 243L132 240C129.184 239.389 128.325 240.556 127 243z"/>
<path style="fill:#00ffff; stroke:none;" d="M129 241L130 242L129 241z"/>
<path style="fill:#3e9eb3; stroke:none;" d="M1 243L1 247C1.71021 245.241 1.71021 244.759 1 243z"/>
<path style="fill:#17b4c7; stroke:none;" d="M112 251C116.879 249.368 121.689 246.808 126 244C121.416 242.928 114.415 247.126 112 251z"/>
<path style="fill:#00ffff; stroke:none;" d="M126 243L127 244L126 243z"/>
<path style="fill:#43aebb; stroke:none;" d="M116.667 248.333C116.222 248.778 117.278 248.722 117.333 248.667C117.778 248.222 116.722 248.278 116.667 248.333z"/>
<path style="fill:#00ffff; stroke:none;" d="M0 249L0 258C1.25612 255.006 1.25612 251.994 0 249z"/>
<path style="fill:#15b4c7; stroke:none;" d="M103 253C106.121 254.083 108.864 252.829 112 252C108.772 250.752 106.172 251.845 103 253z"/>
<path style="fill:#00ffff; stroke:none;" d="M109 252L110 253L109 252z"/>
<path style="fill:#3fbfbf; stroke:none;" d="M103.667 254.333C103.222 254.778 104.278 254.722 104.333 254.667C104.778 254.222 103.722 254.278 103.667 254.333z"/>
<path style="fill:#2db2c1; stroke:none;" d="M100.667 255.333C100.222 255.778 101.278 255.722 101.333 255.667C101.778 255.222 100.722 255.278 100.667 255.333z"/>
<path style="fill:#00ffff; stroke:none;" d="M102 255L103 256L102 255z"/>
<path style="fill:#34b6c5; stroke:none;" d="M90 258C93.3146 259.007 96.6434 257.692 100 257C96.621 255.791 93.3855 257.049 90 258z"/>
<path style="fill:#16b5cb; stroke:none;" d="M1 258C2.26134 262.36 4.70462 263.875 9 265C6.5428 262.521 3.9538 259.829 1 258z"/>
<path style="fill:#7f7f7f; stroke:none;" d="M93 258L94 259L93 258z"/>
<path style="fill:#29b3c7; stroke:none;" d="M82 260C84.6978 260.969 87.1609 260.353 90 260C87.1935 258.854 84.9287 259.308 82 260z"/>
<path style="fill:#2cb1c7; stroke:none;" d="M76 261C77.7691 261.779 79.0359 261.912 81 262C79.231 261.221 77.9641 261.088 76 261z"/>
<path style="fill:#007fff; stroke:none;" d="M81 261L82 262L81 261z"/>
<path style="fill:#00ffff; stroke:none;" d="M2 262L3 263L2 262z"/>
<path style="fill:#40b0c1; stroke:none;" d="M70 262C72.0521 262.874 73.7472 262.953 76 263C73.9479 262.126 72.2528 262.047 70 262z"/>
<path style="fill:#7f7fff; stroke:none;" d="M3 263L4 264L3 263z"/>
<path style="fill:#0fafc5; stroke:none;" d="M43 263C47.4714 264.876 53.1834 264 58 264C53.5286 262.124 47.8166 263 43 263z"/>
<path style="fill:#32b7cf; stroke:none;" d="M58 263C61.6975 264.552 66.0168 264 70 264C66.3025 262.448 61.9832 263 58 263z"/>
<path style="fill:#43abbb; stroke:none;" d="M5.66667 264.333C5.22222 264.778 6.27778 264.722 6.33333 264.667C6.77778 264.222 5.72222 264.278 5.66667 264.333z"/>
<path style="fill:#44acbe; stroke:none;" d="M48 264C51.4324 265.44 55.2998 265 59 265C55.5676 263.56 51.7002 264 48 264z"/>
<path style="fill:#00ffff; stroke:none;" d="M59 264L60 265L59 264z"/>
<path style="fill:#24b6da; stroke:none;" d="M10 265C12.0521 265.874 13.7472 265.953 16 266C13.9479 265.126 12.2528 265.047 10 265z"/>
<path style="fill:#3fbfbf; stroke:none;" d="M16 265C18.8897 266.213 21.8741 265.998 25 266C22.1103 264.787 19.1259 265.002 16 265z"/>
<path style="fill:#24b6da; stroke:none;" d="M25 265C27.3316 265.985 29.4567 265.981 32 266C29.6684 265.015 27.5433 265.019 25 265z"/>
<path style="fill:#007fff; stroke:none;" d="M32 265L33 266L32 265M34 265L35 266L34 265z"/>
<path style="fill:#55aaaa; stroke:none;" d="M35 265L36 266L35 265z"/>
<path style="fill:#00ffff; stroke:none;" d="M36.6667 265.333C36.2222 265.778 37.2778 265.722 37.3333 265.667C37.7778 265.222 36.7222 265.278 36.6667 265.333z"/>
<path style="fill:#007fff; stroke:none;" d="M38 265L39 266L38 265z"/>
<path style="fill:#55aaaa; stroke:none;" d="M39 265C40.2484 265.685 40.5484 265.749 42 266C40.7516 265.315 40.4516 265.251 39 265z"/>
<path style="fill:#007fff; stroke:none;" d="M43 265L44 266L43 265z"/>
</svg>
